<mxfile host="app.diagrams.net" agent="Mozilla/5.0 (Windows NT 10.0; Win64; x64) AppleWebKit/537.36 (KHTML, like Gecko) Chrome/136.0.0.0 Safari/537.36 Edg/136.0.0.0" version="27.0.6">
  <diagram name="Page-1" id="2YBvvXClWsGukQMizWep">
    <mxGraphModel dx="1034" dy="548" grid="1" gridSize="10" guides="1" tooltips="1" connect="1" arrows="1" fold="1" page="1" pageScale="1" pageWidth="850" pageHeight="1100" math="0" shadow="0">
      <root>
        <mxCell id="0" />
        <mxCell id="1" parent="0" />
        <mxCell id="aM9ryv3xv72pqoxQDRHE-7" value="calling" style="html=1;verticalAlign=bottom;endArrow=block;edgeStyle=elbowEdgeStyle;elbow=vertical;curved=0;rounded=0;" parent="1" edge="1">
          <mxGeometry relative="1" as="geometry">
            <mxPoint x="310.0000000000001" y="529.9984507042253" as="sourcePoint" />
            <Array as="points">
              <mxPoint x="430.61027027027023" y="529.9984507042253" />
            </Array>
            <mxPoint x="820" y="530" as="targetPoint" />
            <mxPoint as="offset" />
          </mxGeometry>
        </mxCell>
        <mxCell id="smvw00K9Dj9mKUaPfMbG-24" value="Selected Vehicle&lt;div&gt;Price Request&lt;/div&gt;" style="html=1;verticalAlign=bottom;endArrow=block;curved=0;rounded=0;" parent="1" edge="1">
          <mxGeometry width="80" relative="1" as="geometry">
            <mxPoint x="310" y="660" as="sourcePoint" />
            <mxPoint x="820" y="660" as="targetPoint" />
          </mxGeometry>
        </mxCell>
        <mxCell id="smvw00K9Dj9mKUaPfMbG-28" value="ShowMessage(&quot;Fiyat teklifi alındı&quot;)" style="html=1;verticalAlign=bottom;endArrow=open;dashed=1;endSize=8;curved=0;rounded=0;" parent="1" edge="1">
          <mxGeometry relative="1" as="geometry">
            <mxPoint x="821.8270270270269" y="790.0016901408451" as="sourcePoint" />
            <mxPoint x="308.4459459459463" y="790.0016901408451" as="targetPoint" />
          </mxGeometry>
        </mxCell>
        <mxCell id="smvw00K9Dj9mKUaPfMbG-30" value="Vehicle List" style="html=1;verticalAlign=bottom;endArrow=open;dashed=1;endSize=7;curved=0;rounded=0;strokeWidth=1;" parent="1" edge="1">
          <mxGeometry relative="1" as="geometry">
            <mxPoint x="820" y="620" as="sourcePoint" />
            <mxPoint x="310.0000000000001" y="620.0040845070423" as="targetPoint" />
          </mxGeometry>
        </mxCell>
        <mxCell id="O0Nu8yOaEzsTuDIhydJc-2" value="PriceOfferRequest" style="shape=umlLifeline;perimeter=lifelinePerimeter;whiteSpace=wrap;html=1;container=1;dropTarget=0;collapsible=0;recursiveResize=0;outlineConnect=0;portConstraint=eastwest;newEdgeStyle={&quot;curved&quot;:0,&quot;rounded&quot;:0};" parent="1" vertex="1">
          <mxGeometry x="1090" y="71.97" width="160.81" height="858.03" as="geometry" />
        </mxCell>
        <mxCell id="O0Nu8yOaEzsTuDIhydJc-5" value="processRequest()" style="html=1;verticalAlign=bottom;endArrow=open;dashed=1;endSize=8;curved=0;rounded=0;" parent="1" edge="1">
          <mxGeometry relative="1" as="geometry">
            <mxPoint x="1162.37" y="772.44" as="sourcePoint" />
            <mxPoint x="842.37" y="772.44" as="targetPoint" />
          </mxGeometry>
        </mxCell>
        <mxCell id="LaTcUZ78sRyBdeV5eLJM-1" value="Customer" style="shape=umlLifeline;perimeter=lifelinePerimeter;whiteSpace=wrap;html=1;container=0;dropTarget=0;collapsible=0;recursiveResize=0;outlineConnect=0;portConstraint=eastwest;newEdgeStyle={&quot;edgeStyle&quot;:&quot;elbowEdgeStyle&quot;,&quot;elbow&quot;:&quot;vertical&quot;,&quot;curved&quot;:0,&quot;rounded&quot;:0};" parent="1" vertex="1">
          <mxGeometry x="220" y="71.97" width="160.81" height="968.03" as="geometry" />
        </mxCell>
        <mxCell id="LaTcUZ78sRyBdeV5eLJM-2" value="" style="html=1;points=[];perimeter=orthogonalPerimeter;outlineConnect=0;targetShapes=umlLifeline;portConstraint=eastwest;newEdgeStyle={&quot;edgeStyle&quot;:&quot;elbowEdgeStyle&quot;,&quot;elbow&quot;:&quot;vertical&quot;,&quot;curved&quot;:0,&quot;rounded&quot;:0};" parent="LaTcUZ78sRyBdeV5eLJM-1" vertex="1">
          <mxGeometry x="72.36" y="167.61" width="16.08" height="762.39" as="geometry" />
        </mxCell>
        <mxCell id="LaTcUZ78sRyBdeV5eLJM-17" value="Dealer" style="shape=umlLifeline;perimeter=lifelinePerimeter;whiteSpace=wrap;html=1;container=1;dropTarget=0;collapsible=0;recursiveResize=0;outlineConnect=0;portConstraint=eastwest;newEdgeStyle={&quot;curved&quot;:0,&quot;rounded&quot;:0};" parent="1" vertex="1">
          <mxGeometry x="1382.03" y="71.97" width="160" height="738.03" as="geometry" />
        </mxCell>
        <mxCell id="LaTcUZ78sRyBdeV5eLJM-13" value="Alternative" style="shape=umlFrame;whiteSpace=wrap;html=1;pointerEvents=0;recursiveResize=0;container=1;collapsible=0;width=150;height=30;" parent="1" vertex="1">
          <mxGeometry x="110" y="270" width="480" height="190" as="geometry" />
        </mxCell>
        <mxCell id="LaTcUZ78sRyBdeV5eLJM-14" value="If customer is registered" style="text;html=1;" parent="LaTcUZ78sRyBdeV5eLJM-13" vertex="1">
          <mxGeometry width="100" height="20" relative="1" as="geometry">
            <mxPoint x="10" y="40" as="offset" />
          </mxGeometry>
        </mxCell>
        <mxCell id="LaTcUZ78sRyBdeV5eLJM-15" value="else" style="line;strokeWidth=1;dashed=1;labelPosition=center;verticalLabelPosition=bottom;align=left;verticalAlign=top;spacingLeft=20;spacingTop=15;html=1;whiteSpace=wrap;" parent="LaTcUZ78sRyBdeV5eLJM-13" vertex="1">
          <mxGeometry y="110" width="480" height="10" as="geometry" />
        </mxCell>
        <mxCell id="LaTcUZ78sRyBdeV5eLJM-3" value="calling" style="html=1;verticalAlign=bottom;endArrow=block;edgeStyle=elbowEdgeStyle;elbow=vertical;curved=0;rounded=0;" parent="LaTcUZ78sRyBdeV5eLJM-13" edge="1">
          <mxGeometry relative="1" as="geometry">
            <mxPoint x="202.90594594594592" y="20.073870967741954" as="sourcePoint" />
            <Array as="points" />
            <mxPoint x="420.00054054054044" y="19.99845070422535" as="targetPoint" />
          </mxGeometry>
        </mxCell>
        <mxCell id="LaTcUZ78sRyBdeV5eLJM-22" value="Redirect to main page" style="html=1;verticalAlign=bottom;endArrow=open;dashed=1;endSize=7;curved=0;rounded=0;strokeWidth=1;" parent="LaTcUZ78sRyBdeV5eLJM-13" edge="1">
          <mxGeometry relative="1" as="geometry">
            <mxPoint x="420" y="70" as="sourcePoint" />
            <mxPoint x="200" y="70" as="targetPoint" />
          </mxGeometry>
        </mxCell>
        <mxCell id="LaTcUZ78sRyBdeV5eLJM-23" value="Redirect to registration page" style="html=1;verticalAlign=bottom;endArrow=open;dashed=1;endSize=7;curved=0;rounded=0;strokeWidth=1;" parent="LaTcUZ78sRyBdeV5eLJM-13" edge="1">
          <mxGeometry relative="1" as="geometry">
            <mxPoint x="420" y="160" as="sourcePoint" />
            <mxPoint x="200" y="160" as="targetPoint" />
          </mxGeometry>
        </mxCell>
        <mxCell id="aM9ryv3xv72pqoxQDRHE-1" value="Login" style="shape=umlLifeline;perimeter=lifelinePerimeter;whiteSpace=wrap;html=1;container=0;dropTarget=0;collapsible=0;recursiveResize=0;outlineConnect=0;portConstraint=eastwest;newEdgeStyle={&quot;edgeStyle&quot;:&quot;elbowEdgeStyle&quot;,&quot;elbow&quot;:&quot;vertical&quot;,&quot;curved&quot;:0,&quot;rounded&quot;:0};" parent="LaTcUZ78sRyBdeV5eLJM-13" vertex="1">
          <mxGeometry x="351.22" y="-194.01" width="160.81" height="494.01" as="geometry" />
        </mxCell>
        <mxCell id="aM9ryv3xv72pqoxQDRHE-2" value="" style="html=1;points=[];perimeter=orthogonalPerimeter;outlineConnect=0;targetShapes=umlLifeline;portConstraint=eastwest;newEdgeStyle={&quot;edgeStyle&quot;:&quot;elbowEdgeStyle&quot;,&quot;elbow&quot;:&quot;vertical&quot;,&quot;curved&quot;:0,&quot;rounded&quot;:0};" parent="aM9ryv3xv72pqoxQDRHE-1" vertex="1">
          <mxGeometry x="72.36" y="200.04000000000002" width="16.08" height="197.95" as="geometry" />
        </mxCell>
        <mxCell id="LaTcUZ78sRyBdeV5eLJM-48" value="Alternative" style="shape=umlFrame;whiteSpace=wrap;html=1;pointerEvents=0;recursiveResize=0;container=0;collapsible=0;width=130;height=30;" parent="1" vertex="1">
          <mxGeometry x="110" y="710" width="1400" height="260" as="geometry" />
        </mxCell>
        <mxCell id="LaTcUZ78sRyBdeV5eLJM-57" value="Create" style="html=1;verticalAlign=bottom;endArrow=block;curved=0;rounded=0;" parent="1" edge="1">
          <mxGeometry width="80" relative="1" as="geometry">
            <mxPoint x="840" y="680" as="sourcePoint" />
            <mxPoint x="1162.37" y="680" as="targetPoint" />
            <mxPoint as="offset" />
          </mxGeometry>
        </mxCell>
        <mxCell id="LaTcUZ78sRyBdeV5eLJM-50" value="" style="line;strokeWidth=1;dashed=1;labelPosition=center;verticalLabelPosition=bottom;align=left;verticalAlign=top;spacingLeft=20;spacingTop=15;html=1;whiteSpace=wrap;" parent="1" vertex="1">
          <mxGeometry x="110" y="796.06" width="1400" height="10" as="geometry" />
        </mxCell>
        <mxCell id="LaTcUZ78sRyBdeV5eLJM-49" value="If no request has been made&amp;nbsp;" style="text;html=1;" parent="1" vertex="1">
          <mxGeometry x="110" y="709.9999999999999" width="100" height="20" as="geometry">
            <mxPoint y="30" as="offset" />
          </mxGeometry>
        </mxCell>
        <mxCell id="LaTcUZ78sRyBdeV5eLJM-39" value="Send request&amp;nbsp;" style="html=1;verticalAlign=bottom;endArrow=block;curved=0;rounded=0;" parent="1" edge="1">
          <mxGeometry width="80" relative="1" as="geometry">
            <mxPoint x="1180" y="730" as="sourcePoint" />
            <mxPoint x="1452.03" y="730" as="targetPoint" />
            <mxPoint as="offset" />
          </mxGeometry>
        </mxCell>
        <mxCell id="LaTcUZ78sRyBdeV5eLJM-60" value="Send price offer" style="html=1;verticalAlign=bottom;endArrow=open;dashed=1;endSize=8;curved=0;rounded=0;" parent="1" edge="1">
          <mxGeometry relative="1" as="geometry">
            <mxPoint x="1460" y="760" as="sourcePoint" />
            <mxPoint x="1180" y="760" as="targetPoint" />
          </mxGeometry>
        </mxCell>
        <mxCell id="LaTcUZ78sRyBdeV5eLJM-38" value="" style="html=1;points=[[0,0,0,0,5],[0,1,0,0,-5],[1,0,0,0,5],[1,1,0,0,-5]];perimeter=orthogonalPerimeter;outlineConnect=0;targetShapes=umlLifeline;portConstraint=eastwest;newEdgeStyle={&quot;curved&quot;:0,&quot;rounded&quot;:0};" parent="1" vertex="1">
          <mxGeometry x="1453.99" y="716.06" width="16.08" height="80" as="geometry" />
        </mxCell>
        <mxCell id="LaTcUZ78sRyBdeV5eLJM-61" value="processRequest()" style="html=1;verticalAlign=bottom;endArrow=open;dashed=1;endSize=8;curved=0;rounded=0;" parent="1" edge="1">
          <mxGeometry relative="1" as="geometry">
            <mxPoint x="1162.37" y="850" as="sourcePoint" />
            <mxPoint x="842.37" y="850" as="targetPoint" />
          </mxGeometry>
        </mxCell>
        <mxCell id="LaTcUZ78sRyBdeV5eLJM-63" value="ShowMessage(&quot;Daha önce talep gönderildi, teklif bekleniyor.&quot;)" style="html=1;verticalAlign=bottom;endArrow=open;dashed=1;endSize=8;curved=0;rounded=0;" parent="1" edge="1">
          <mxGeometry relative="1" as="geometry">
            <mxPoint x="823.3810810810805" y="860" as="sourcePoint" />
            <mxPoint x="310" y="860" as="targetPoint" />
          </mxGeometry>
        </mxCell>
        <mxCell id="LaTcUZ78sRyBdeV5eLJM-66" value="" style="line;strokeWidth=1;dashed=1;labelPosition=center;verticalLabelPosition=bottom;align=left;verticalAlign=top;spacingLeft=20;spacingTop=15;html=1;whiteSpace=wrap;" parent="1" vertex="1">
          <mxGeometry x="110" y="870" width="1380" height="10" as="geometry" />
        </mxCell>
        <mxCell id="LaTcUZ78sRyBdeV5eLJM-67" value="If a request has been sent but&amp;nbsp;&lt;div&gt;no price offer has been received&lt;/div&gt;" style="text;html=1;" parent="1" vertex="1">
          <mxGeometry x="110" y="770" width="100" height="20" as="geometry">
            <mxPoint y="30" as="offset" />
          </mxGeometry>
        </mxCell>
        <mxCell id="LaTcUZ78sRyBdeV5eLJM-68" value="If price ofer has been received&amp;nbsp;&lt;div&gt;in 30 days&lt;/div&gt;&lt;div&gt;&lt;br&gt;&lt;/div&gt;" style="text;html=1;" parent="1" vertex="1">
          <mxGeometry x="110" y="840" width="100" height="20" as="geometry">
            <mxPoint y="30" as="offset" />
          </mxGeometry>
        </mxCell>
        <mxCell id="aM9ryv3xv72pqoxQDRHE-5" value="&lt;div&gt;&lt;br&gt;&lt;/div&gt;PriceOffer&lt;div&gt;RequestPage&lt;div&gt;&lt;br&gt;&lt;/div&gt;&lt;/div&gt;" style="shape=umlLifeline;perimeter=lifelinePerimeter;whiteSpace=wrap;html=1;container=0;dropTarget=0;collapsible=0;recursiveResize=0;outlineConnect=0;portConstraint=eastwest;newEdgeStyle={&quot;edgeStyle&quot;:&quot;elbowEdgeStyle&quot;,&quot;elbow&quot;:&quot;vertical&quot;,&quot;curved&quot;:0,&quot;rounded&quot;:0};" parent="1" vertex="1">
          <mxGeometry x="750.68" y="71.97" width="160.81" height="888.03" as="geometry" />
        </mxCell>
        <mxCell id="aM9ryv3xv72pqoxQDRHE-6" value="" style="html=1;points=[];perimeter=orthogonalPerimeter;outlineConnect=0;targetShapes=umlLifeline;portConstraint=eastwest;newEdgeStyle={&quot;edgeStyle&quot;:&quot;elbowEdgeStyle&quot;,&quot;elbow&quot;:&quot;vertical&quot;,&quot;curved&quot;:0,&quot;rounded&quot;:0};" parent="aM9ryv3xv72pqoxQDRHE-5" vertex="1">
          <mxGeometry x="72.36" y="430" width="17.64" height="440" as="geometry" />
        </mxCell>
        <mxCell id="LaTcUZ78sRyBdeV5eLJM-32" value="" style="html=1;points=[[0,0,0,0,5],[0,1,0,0,-5],[1,0,0,0,5],[1,1,0,0,-5]];perimeter=orthogonalPerimeter;outlineConnect=0;targetShapes=umlLifeline;portConstraint=eastwest;newEdgeStyle={&quot;curved&quot;:0,&quot;rounded&quot;:0};" parent="aM9ryv3xv72pqoxQDRHE-5" vertex="1">
          <mxGeometry x="84.32432432432438" y="488.0281690140845" width="10" height="40" as="geometry" />
        </mxCell>
        <mxCell id="LaTcUZ78sRyBdeV5eLJM-33" value="loadVehicle()" style="html=1;align=left;spacingLeft=2;endArrow=block;rounded=0;edgeStyle=orthogonalEdgeStyle;curved=0;rounded=0;" parent="aM9ryv3xv72pqoxQDRHE-5" target="LaTcUZ78sRyBdeV5eLJM-32" edge="1">
          <mxGeometry relative="1" as="geometry">
            <mxPoint x="89.32432432432438" y="468.0281690140845" as="sourcePoint" />
            <Array as="points">
              <mxPoint x="119.32432432432438" y="498.0281690140845" />
            </Array>
          </mxGeometry>
        </mxCell>
        <mxCell id="LaTcUZ78sRyBdeV5eLJM-69" value="ShowMessage(&quot;Bu araç için geçerli fiyat teklifi bulunuyor.&quot;)" style="html=1;verticalAlign=bottom;endArrow=open;dashed=1;endSize=8;curved=0;rounded=0;" parent="1" edge="1">
          <mxGeometry relative="1" as="geometry">
            <mxPoint x="823.3810810810805" y="910" as="sourcePoint" />
            <mxPoint x="310" y="910" as="targetPoint" />
          </mxGeometry>
        </mxCell>
        <mxCell id="O0Nu8yOaEzsTuDIhydJc-3" value="" style="html=1;points=[[0,0,0,0,5],[0,1,0,0,-5],[1,0,0,0,5],[1,1,0,0,-5]];perimeter=orthogonalPerimeter;outlineConnect=0;targetShapes=umlLifeline;portConstraint=eastwest;newEdgeStyle={&quot;curved&quot;:0,&quot;rounded&quot;:0};" parent="1" vertex="1">
          <mxGeometry x="1162.37" y="660" width="16.08" height="250" as="geometry" />
        </mxCell>
        <mxCell id="LaTcUZ78sRyBdeV5eLJM-70" value="processRequest()" style="html=1;verticalAlign=bottom;endArrow=open;dashed=1;endSize=8;curved=0;rounded=0;" parent="1" edge="1">
          <mxGeometry relative="1" as="geometry">
            <mxPoint x="1162.37" y="900" as="sourcePoint" />
            <mxPoint x="842.37" y="900" as="targetPoint" />
          </mxGeometry>
        </mxCell>
      </root>
    </mxGraphModel>
  </diagram>
</mxfile>
